<?xml version="1.0" encoding="UTF-8" standalone="no"?>
<!DOCTYPE svg PUBLIC "-//W3C//DTD SVG 20010904//EN"
              "http://www.w3.org/TR/2001/REC-SVG-20010904/DTD/svg10.dtd">

<svg xmlns="http://www.w3.org/2000/svg"
     viewBox="0 0 1920 1080">
	<g transform="rotate(-180 960 540)">

  <path id="rouge"
        fill="#811f11" stroke="#811f11" stroke-width="1"
        d="M 1586.00,781.00
           C 1586.00,781.00 1470.00,781.00 1470.00,781.00
             1439.41,781.00 1402.77,782.28 1373.00,776.74
             1328.25,768.41 1287.60,744.70 1257.17,711.00
             1201.74,649.63 1188.96,558.82 1223.31,484.00
             1236.58,455.08 1259.86,426.23 1285.00,406.89
             1316.91,382.33 1353.95,367.99 1394.00,364.17
             1394.00,364.17 1414.00,363.09 1414.00,363.09
             1414.00,363.09 1428.00,364.00 1428.00,364.00
             1444.91,364.20 1470.12,370.59 1486.00,376.58
             1552.74,401.75 1602.76,458.79 1616.80,529.00
             1618.61,538.07 1620.89,552.92 1621.00,562.00
             1621.00,562.00 1621.00,702.00 1621.00,702.00
             1621.00,702.00 1621.00,735.00 1621.00,735.00
             1621.01,737.54 1620.68,741.48 1622.60,743.40
             1624.52,745.32 1628.46,744.99 1631.00,745.00
             1631.00,745.00 1920.00,745.00 1920.00,745.00
             1920.00,745.00 1920.00,781.00 1920.00,781.00
             1920.00,781.00 1621.00,781.00 1621.00,781.00
             1621.00,781.00 1621.00,1080.00 1621.00,1080.00
             1621.00,1080.00 1585.00,1080.00 1585.00,1080.00
             1585.00,1080.00 1585.00,958.00 1585.00,958.00
             1585.00,958.00 1586.00,943.00 1586.00,943.00
             1586.00,943.00 1586.00,781.00 1586.00,781.00 Z
           M 1408.00,399.28
           C 1408.00,399.28 1396.00,400.17 1396.00,400.17
             1396.00,400.17 1376.00,403.21 1376.00,403.21
             1351.37,408.42 1328.09,419.38 1308.00,434.47
             1276.51,458.14 1254.64,491.92 1245.13,530.00
             1242.41,540.86 1240.02,554.84 1240.00,566.00
             1239.96,590.73 1243.48,615.01 1253.01,638.00
             1277.32,696.65 1330.16,736.18 1393.00,743.90
             1393.00,743.90 1403.00,743.90 1403.00,743.90
             1403.00,743.90 1413.00,745.00 1413.00,745.00
             1413.00,745.00 1545.00,745.00 1545.00,745.00
             1545.00,745.00 1577.00,745.00 1577.00,745.00
             1579.30,745.00 1583.41,745.38 1584.98,743.40
             1586.47,741.51 1586.03,732.72 1586.00,730.00
             1586.00,730.00 1585.00,717.00 1585.00,717.00
             1585.00,717.00 1585.00,693.00 1585.00,693.00
             1585.00,693.00 1585.95,683.00 1585.95,683.00
             1585.95,683.00 1585.95,670.00 1585.95,670.00
             1585.95,670.00 1585.00,655.00 1585.00,655.00
             1585.00,655.00 1585.00,635.00 1585.00,635.00
             1585.00,635.00 1586.00,619.00 1586.00,619.00
             1586.00,619.00 1586.00,580.00 1586.00,580.00
             1586.00,580.00 1585.00,560.00 1585.00,560.00
             1584.88,549.84 1581.57,533.93 1578.85,524.00
             1562.28,463.48 1511.88,417.21 1451.00,403.58
             1440.09,401.13 1418.84,398.28 1408.00,399.28 Z" />
  <path id="jaune"
        fill="#ffaf00" stroke="#ffaf00" stroke-width="1"
        d="M 1527.00,723.00
           C 1527.00,723.00 1514.00,723.00 1514.00,723.00
             1514.00,723.00 1495.00,722.00 1495.00,722.00
             1495.00,722.00 1404.00,722.00 1404.00,722.00
             1395.09,721.99 1387.61,720.35 1379.00,718.42
             1335.03,708.57 1296.32,678.10 1277.31,637.00
             1265.74,611.99 1262.96,592.17 1263.00,565.00
             1263.01,556.16 1264.65,546.63 1266.58,538.00
             1276.43,493.96 1307.20,455.66 1348.00,436.32
             1371.30,425.28 1393.48,421.71 1419.00,422.00
             1438.43,422.23 1461.68,428.59 1479.00,437.25
             1503.15,449.31 1521.93,465.50 1537.00,488.00
             1551.20,509.21 1559.41,531.56 1561.96,557.00
             1561.96,557.00 1561.96,565.00 1561.96,565.00
             1561.96,565.00 1563.00,577.00 1563.00,577.00
             1563.00,577.00 1563.00,687.00 1563.00,687.00
             1563.00,687.00 1585.00,687.00 1585.00,687.00
             1585.00,687.00 1585.00,723.00 1585.00,723.00
             1585.00,723.00 1563.00,723.00 1563.00,723.00
             1563.00,723.00 1563.00,744.00 1563.00,744.00
             1563.00,744.00 1527.00,744.00 1527.00,744.00
             1527.00,744.00 1527.00,723.00 1527.00,723.00 Z
           M 1527.00,687.00
           C 1527.00,687.00 1527.00,573.00 1527.00,573.00
             1526.96,549.54 1519.76,525.26 1506.28,506.00
             1494.93,489.78 1479.69,477.46 1462.00,468.76
             1443.47,459.64 1426.30,457.77 1406.00,458.00
             1392.28,458.16 1375.24,463.17 1363.00,469.25
             1329.66,485.80 1307.34,514.29 1300.46,551.00
             1298.67,560.54 1298.89,569.36 1299.00,579.00
             1299.08,585.14 1300.66,593.98 1302.13,600.00
             1311.56,638.62 1340.09,669.12 1378.00,681.02
             1387.73,684.08 1394.64,685.98 1405.00,686.00
             1405.00,686.00 1439.00,686.00 1439.00,686.00
             1439.00,686.00 1456.00,687.00 1456.00,687.00
             1456.00,687.00 1527.00,687.00 1527.00,687.00 Z
           M 1622.00,687.00
           C 1622.00,687.00 1725.00,687.00 1725.00,687.00
             1725.00,687.00 1740.00,688.00 1740.00,688.00
             1740.00,688.00 1920.00,688.00 1920.00,688.00
             1920.00,688.00 1920.00,724.00 1920.00,724.00
             1920.00,724.00 1764.00,724.00 1764.00,724.00
             1764.00,724.00 1749.00,723.00 1749.00,723.00
             1749.00,723.00 1622.00,723.00 1622.00,723.00
             1622.00,723.00 1622.00,687.00 1622.00,687.00 Z
           M 1527.00,781.00
           C 1527.00,781.00 1562.00,781.00 1562.00,781.00
             1562.00,781.00 1562.00,1080.00 1562.00,1080.00
             1562.00,1080.00 1527.00,1080.00 1527.00,1080.00
             1527.00,1080.00 1527.00,781.00 1527.00,781.00 Z" />
  <path id="turquoise"
        fill="#104b4d" stroke="#104b4d" stroke-width="1"
        d="M 1468.00,663.00
           C 1468.00,663.00 1409.00,663.00 1409.00,663.00
             1399.80,662.99 1391.69,661.26 1383.00,658.33
             1352.76,648.16 1330.61,623.07 1323.66,592.00
             1321.55,582.53 1321.89,573.63 1322.00,564.00
             1322.13,552.83 1326.39,539.94 1331.37,530.00
             1345.12,502.56 1376.92,481.05 1408.00,481.00
             1408.00,481.00 1418.00,481.00 1418.00,481.00
             1444.63,481.13 1472.22,497.49 1487.28,519.00
             1498.09,534.44 1503.97,553.17 1504.00,572.00
             1504.00,572.00 1504.00,627.00 1504.00,627.00
             1504.00,627.00 1526.00,627.00 1526.00,627.00
             1526.00,627.00 1526.00,663.00 1526.00,663.00
             1526.00,663.00 1504.00,663.00 1504.00,663.00
             1504.00,663.00 1504.00,686.00 1504.00,686.00
             1504.00,686.00 1468.00,686.00 1468.00,686.00
             1468.00,686.00 1468.00,663.00 1468.00,663.00 Z
           M 1468.00,627.00
           C 1468.00,627.00 1468.00,572.00 1468.00,572.00
             1467.98,560.38 1464.89,549.62 1458.23,540.00
             1452.66,531.95 1445.80,526.26 1437.00,521.98
             1426.68,516.96 1419.08,516.87 1408.00,517.00
             1400.56,517.09 1392.43,519.75 1386.00,523.43
             1355.72,540.75 1347.75,581.02 1370.32,608.00
             1375.23,613.86 1382.17,618.80 1389.00,622.19
             1396.14,625.74 1402.11,626.99 1410.00,627.00
             1410.00,627.00 1468.00,627.00 1468.00,627.00 Z
           M 1563.00,627.00
           C 1563.00,627.00 1585.00,628.00 1585.00,628.00
             1585.00,628.00 1585.00,663.00 1585.00,663.00
             1585.00,663.00 1563.00,663.00 1563.00,663.00
             1563.00,663.00 1563.00,627.00 1563.00,627.00 Z
           M 1622.00,628.00
           C 1622.00,628.00 1920.00,628.00 1920.00,628.00
             1920.00,628.00 1920.00,664.00 1920.00,664.00
             1920.00,664.00 1741.00,664.00 1741.00,664.00
             1741.00,664.00 1651.00,664.00 1651.00,664.00
             1651.00,664.00 1636.00,663.00 1636.00,663.00
             1636.00,663.00 1622.00,663.00 1622.00,663.00
             1622.00,663.00 1622.00,628.00 1622.00,628.00 Z
           M 1468.00,723.00
           C 1468.00,723.00 1504.00,723.00 1504.00,723.00
             1504.00,723.00 1504.00,744.00 1504.00,744.00
             1504.00,744.00 1468.00,744.00 1468.00,744.00
             1468.00,744.00 1468.00,723.00 1468.00,723.00 Z
           M 1469.00,781.00
           C 1469.00,781.00 1504.00,781.00 1504.00,781.00
             1504.00,781.00 1504.00,966.00 1504.00,966.00
             1504.00,966.00 1505.00,981.00 1505.00,981.00
             1505.00,981.00 1505.00,1080.00 1505.00,1080.00
             1505.00,1080.00 1469.00,1080.00 1469.00,1080.00
             1469.00,1080.00 1469.00,781.00 1469.00,781.00 Z" />
	</g>
</svg>
