<?xml version="1.0" encoding="UTF-8" standalone="no"?>
<!DOCTYPE svg PUBLIC "-//W3C//DTD SVG 20010904//EN"
              "http://www.w3.org/TR/2001/REC-SVG-20010904/DTD/svg10.dtd">

<svg xmlns="http://www.w3.org/2000/svg"
     viewBox="0 0 1181 1181">

  <!-- Extérieur : TURQUOISE (plus grand tracé) -->
  <path id="turquoise"
        fill="#104b4d" stroke="#104b4d" stroke-width="1"
        d="M 2.00,0.00
           C 2.00,0.00 45.00,0.00 45.00,0.00
             45.00,0.00 45.00,812.00 45.00,812.00
             45.00,812.00 46.04,824.00 46.04,824.00
             46.04,824.00 46.04,833.00 46.04,833.00
             46.04,833.00 51.60,870.00 51.60,870.00
             75.73,990.63 165.67,1087.61 284.00,1121.14
             303.89,1126.78 324.39,1130.58 345.00,1132.09
             345.00,1132.09 355.00,1133.00 355.00,1133.00
             355.00,1133.00 447.00,1133.00 447.00,1133.00
             447.00,1133.00 629.00,1133.00 629.00,1133.00
             629.00,1133.00 1178.00,1133.00 1178.00,1133.00
             1178.00,1133.00 1178.00,1176.00 1178.00,1176.00
             1178.00,1176.00 519.00,1176.00 519.00,1176.00
             519.00,1176.00 409.00,1176.00 409.00,1176.00
             369.99,1176.00 346.34,1177.17 307.00,1170.57
             233.79,1158.28 165.14,1121.35 112.09,1069.83
             112.09,1069.83 104.96,1062.00 104.96,1062.00
             57.11,1011.95 23.60,949.01 10.00,881.00
             6.95,865.76 3.02,841.24 3.00,826.00
             3.00,826.00 3.00,816.00 3.00,816.00
             3.00,816.00 2.00,801.00 2.00,801.00
             2.00,801.00 2.00,671.00 2.00,671.00
             2.00,671.00 2.00,0.00 2.00,0.00 Z" />

  <!-- Intermédiaire : ROUGE -->
  <path id="rouge"
        fill="#811f11" stroke="#811f11" stroke-width="1"
        d="M 90.00,0.00
           C 90.00,0.00 134.00,0.00 134.00,0.00
             134.00,0.00 134.00,797.00 134.00,797.00
             134.00,797.00 134.96,809.00 134.96,809.00
             134.96,809.00 134.96,820.00 134.96,820.00
             135.33,847.72 147.64,888.38 160.26,913.00
             190.80,972.58 244.67,1017.07 309.00,1035.42
             323.79,1039.64 346.74,1043.98 362.00,1044.00
             362.00,1044.00 1179.00,1044.00 1179.00,1044.00
             1179.00,1044.00 1179.00,1089.00 1179.00,1089.00
             1179.00,1089.00 366.00,1089.00 366.00,1089.00
             366.00,1089.00 354.00,1088.09 354.00,1088.09
             338.59,1087.03 324.09,1085.13 309.00,1081.65
             206.02,1057.89 124.26,977.50 98.63,875.00
             94.55,858.71 92.06,842.72 90.91,826.00
             90.91,826.00 90.00,814.00 90.00,814.00
             90.00,814.00 90.00,0.00 90.00,0.00 Z" />

  <!-- Intermédiaire : ORANGE -->
  <path id="orange"
        fill="#d34a24" stroke="#d34a24" stroke-width="1"
        d="M 174.00,0.00
           C 174.00,0.00 218.00,0.00 218.00,0.00
             218.00,0.00 218.00,536.00 218.00,536.00
             218.00,536.00 218.00,714.00 218.00,714.00
             218.00,714.00 218.00,804.00 218.00,804.00
             218.00,804.00 218.91,814.00 218.91,814.00
             223.35,878.63 266.17,933.49 329.00,951.42
             339.44,954.40 351.13,956.98 362.00,957.00
             362.00,957.00 1179.00,957.00 1179.00,957.00
             1179.00,957.00 1179.00,1002.00 1179.00,1002.00
             1179.00,1002.00 367.00,1002.00 367.00,1002.00
             367.00,1002.00 355.00,1001.09 355.00,1001.09
             275.34,995.52 208.85,942.61 183.67,867.00
             178.36,851.07 174.03,829.78 174.00,813.00
             174.00,813.00 174.00,0.00 174.00,0.00 Z" />

  <!-- Intérieur : JAUNE (plus petit tracé) -->
  <path id="jaune"
        fill="#ffaf00" stroke="#ffaf00" stroke-width="1"
        d="M 264.00,0.00
           C 264.00,0.00 309.00,0.00 309.00,0.00
             309.00,0.00 309.00,54.00 309.00,54.00
             309.00,54.00 308.00,71.00 308.00,71.00
             308.00,71.00 308.00,256.00 308.00,256.00
             308.00,256.00 308.00,340.00 308.00,340.00
             308.00,340.00 307.00,355.00 307.00,355.00
             307.00,355.00 307.00,621.00 307.00,621.00
             307.00,621.00 306.00,638.00 306.00,638.00
             306.00,638.00 306.00,806.00 306.00,806.00
             306.06,841.92 336.39,870.94 372.00,871.00
             372.00,871.00 1179.00,871.00 1179.00,871.00
             1179.00,871.00 1179.00,915.00 1179.00,915.00
             1179.00,915.00 364.00,915.00 364.00,915.00
             355.80,914.99 350.85,913.85 343.00,911.87
             302.63,901.73 271.64,868.72 263.45,828.00
             259.95,810.61 260.97,787.11 261.00,769.00
             261.00,769.00 262.00,752.00 262.00,752.00
             262.00,752.00 262.00,568.00 262.00,568.00
             262.00,568.00 262.00,484.00 262.00,484.00
             262.00,484.00 263.00,469.00 263.00,469.00
             263.00,469.00 263.00,284.00 263.00,284.00
             263.00,284.00 263.00,200.00 263.00,200.00
             263.00,200.00 264.00,185.00 264.00,185.00
             264.00,185.00 264.00,0.00 264.00,0.00 Z" />

</svg>
