<?xml version="1.0" encoding="UTF-8" standalone="no"?>
<!DOCTYPE svg PUBLIC "-//W3C//DTD SVG 20010904//EN"
              "http://www.w3.org/TR/2001/REC-SVG-20010904/DTD/svg10.dtd">

<svg xmlns="http://www.w3.org/2000/svg"
     viewBox="0 0 1414 2000">
  <path id="jaune"
        fill="#ffaf00" stroke="#ffaf00" stroke-width="1"
        d="M 1197.00,0.00
           C 1197.00,0.00 1230.00,0.00 1230.00,0.00
             1230.00,0.00 1230.00,33.00 1230.00,33.00
             1230.00,33.00 1229.00,50.00 1229.00,50.00
             1229.00,50.00 1229.00,231.00 1229.00,231.00
             1228.96,259.72 1211.15,285.23 1184.00,294.91
             1171.65,299.32 1164.56,298.86 1152.00,299.00
             1131.17,299.25 1107.26,305.30 1088.00,313.00
             1071.20,319.72 1055.18,328.72 1041.00,340.00
             1003.87,369.55 976.98,412.03 968.75,459.00
             967.36,466.95 966.01,474.90 966.00,483.00
             966.00,483.00 966.00,534.00 966.00,534.00
             966.00,534.00 965.00,551.00 965.00,551.00
             965.00,551.00 965.00,664.00 965.00,664.00
             965.00,664.00 933.00,664.00 933.00,664.00
             933.00,664.00 933.00,548.00 933.00,548.00
             933.00,548.00 933.00,498.00 933.00,498.00
             933.00,498.00 934.00,483.00 934.00,483.00
             934.60,431.48 956.79,380.01 991.17,342.00
             1027.23,302.12 1077.51,275.24 1131.00,268.85
             1131.00,268.85 1150.00,267.00 1150.00,267.00
             1157.37,266.92 1162.71,267.47 1170.00,265.23
             1187.85,259.73 1196.97,245.10 1197.00,227.00
             1197.00,227.00 1197.00,0.00 1197.00,0.00 Z"/>
  <path id="orange"
        fill="#d34a24" stroke="#d34a24" stroke-width="1"
		d="M 1250.00,0.00
           C 1250.00,0.00 1282.00,0.00 1282.00,0.00
             1282.00,0.00 1282.00,233.00 1282.00,233.00
             1281.98,246.36 1279.02,259.43 1274.66,272.00
             1261.64,309.50 1229.09,337.81 1191.00,347.84
             1191.00,347.84 1138.00,353.44 1138.00,353.44
             1108.09,358.25 1081.25,372.51 1060.00,394.00
             1037.52,416.75 1022.23,446.97 1019.04,479.00
             1019.04,479.00 1019.04,488.00 1019.04,488.00
             1019.04,488.00 1018.00,507.00 1018.00,507.00
             1018.00,507.00 1019.00,522.00 1019.00,522.00
             1019.00,522.00 1019.00,664.00 1019.00,664.00
             1019.00,664.00 986.00,664.00 986.00,664.00
             986.00,664.00 986.00,548.00 986.00,548.00
             986.00,518.76 984.20,486.56 989.80,458.00
             996.55,423.61 1014.82,392.95 1039.09,368.04
             1058.86,347.74 1090.57,331.33 1118.00,324.47
             1144.29,317.90 1163.65,321.48 1184.00,316.12
             1222.00,306.09 1249.94,269.16 1250.00,230.00
             1250.00,230.00 1250.00,0.00 1250.00,0.00 Z"/>
  <path id="rouge"
        fill="#811f11" stroke="#811f11" stroke-width="1" 
		d="M 1304.00,0.00
           C 1304.00,0.00 1336.00,0.00 1336.00,0.00
             1336.00,0.00 1336.00,181.00 1336.00,181.00
             1336.00,202.98 1337.27,230.70 1334.72,252.00
             1331.60,277.92 1323.00,302.93 1308.95,325.00
             1283.84,364.44 1243.73,391.67 1198.00,401.00
             1198.00,401.00 1148.00,405.29 1148.00,405.29
             1133.52,407.24 1117.33,414.30 1106.00,423.46
             1085.00,440.43 1071.04,465.62 1071.00,493.00
             1071.00,493.00 1071.00,534.00 1071.00,534.00
             1071.00,534.00 1071.00,665.00 1071.00,665.00
             1071.00,665.00 1054.00,664.00 1054.00,664.00
             1054.00,664.00 1038.00,664.00 1038.00,664.00
             1038.00,664.00 1038.00,648.00 1038.00,648.00
             1038.00,648.00 1039.00,632.00 1039.00,632.00
             1039.00,632.00 1039.00,544.00 1039.00,544.00
             1039.00,525.98 1037.86,490.00 1040.44,474.00
             1044.65,447.83 1057.05,424.53 1076.00,406.01
             1101.76,380.85 1132.92,372.05 1168.00,372.00
             1216.90,371.92 1265.19,339.75 1287.68,297.00
             1297.26,278.79 1301.69,260.34 1303.09,240.00
             1303.09,240.00 1304.00,228.00 1304.00,228.00
             1304.00,228.00 1304.00,0.00 1304.00,0.00 Z"/>
  <path id="turquoise"
        fill="#104b4d" stroke="#104b4d" stroke-width="1"
		d=" M 1356.00,0.00
           C 1356.00,0.00 1389.00,0.00 1389.00,0.00
             1389.00,0.00 1389.00,183.00 1389.00,183.00
             1389.00,183.00 1389.00,233.00 1389.00,233.00
             1389.00,233.00 1388.00,248.00 1388.00,248.00
             1387.58,283.88 1375.83,321.56 1356.94,352.00
             1327.80,398.93 1284.29,433.37 1231.00,448.57
             1215.54,452.98 1193.00,456.98 1177.00,457.00
             1168.25,457.01 1157.20,456.31 1149.00,459.47
             1130.10,466.73 1124.03,483.33 1124.00,502.00
             1124.00,502.00 1124.00,664.00 1124.00,664.00
             1124.00,664.00 1092.00,664.00 1092.00,664.00
             1092.00,664.00 1092.00,520.00 1092.00,520.00
             1092.00,491.62 1090.30,465.57 1113.04,444.17
             1125.55,432.39 1142.77,425.03 1160.00,425.00
             1176.52,424.97 1192.80,424.20 1209.00,420.58
             1258.73,409.45 1302.07,378.28 1328.94,335.00
             1343.38,311.73 1355.96,275.57 1356.00,248.00
             1356.00,248.00 1356.00,187.00 1356.00,187.00
             1356.00,187.00 1356.00,0.00 1356.00,0.00 Z"/>
  <path id="turquoise"
        fill="#104b4d" stroke="#104b4d" stroke-width="1"
		d="M 933.00,714.00
           C 933.00,714.00 965.00,714.00 965.00,714.00
             965.00,714.00 965.00,1285.00 965.00,1285.00
             965.00,1285.00 933.00,1285.00 933.00,1285.00
             933.00,1285.00 933.00,714.00 933.00,714.00 Z"/>
  <path id="rouge"
        fill="#811f11" stroke="#811f11" stroke-width="1" 
		d=" M 987.00,714.00
           C 987.00,714.00 1018.00,714.00 1018.00,714.00
             1018.00,714.00 1018.00,1285.00 1018.00,1285.00
             1018.00,1285.00 987.00,1285.00 987.00,1285.00
             987.00,1285.00 987.00,714.00 987.00,714.00 Z"/>
  <path id="orange"
        fill="#d34a24" stroke="#d34a24" stroke-width="1"
		d="M 1039.00,714.00
           C 1039.00,714.00 1070.00,714.00 1070.00,714.00
             1070.00,714.00 1070.00,1285.00 1070.00,1285.00
             1070.00,1285.00 1039.00,1285.00 1039.00,1285.00
             1039.00,1285.00 1039.00,714.00 1039.00,714.00 Z"/>
  <path id="jaune"
        fill="#ffaf00" stroke="#ffaf00" stroke-width="1"
        d="M 1092.00,714.00
           C 1092.00,714.00 1124.00,714.00 1124.00,714.00
             1124.00,714.00 1124.00,1285.00 1124.00,1285.00
             1124.00,1285.00 1092.00,1285.00 1092.00,1285.00
             1092.00,1285.00 1092.00,714.00 1092.00,714.00 Z"/>
  <path id="jaune"
        fill="#ffaf00" stroke="#ffaf00" stroke-width="1"
        d="M 933.00,1335.00
           C 933.00,1335.00 965.00,1335.00 965.00,1335.00
             965.00,1335.00 965.00,1453.00 965.00,1453.00
             965.00,1453.00 966.00,1468.00 966.00,1468.00
             966.00,1468.00 966.00,1516.00 966.00,1516.00
             966.01,1523.71 967.31,1531.40 968.59,1539.00
             974.72,1575.46 991.90,1609.96 1017.09,1637.00
             1042.37,1664.14 1075.05,1684.38 1111.00,1693.85
             1122.29,1696.82 1142.42,1699.98 1154.00,1700.00
             1154.00,1700.00 1160.00,1700.00 1160.00,1700.00
             1181.24,1700.03 1202.23,1710.00 1215.10,1727.00
             1218.82,1731.91 1222.75,1739.23 1224.94,1745.00
             1227.77,1752.48 1228.99,1761.03 1229.00,1769.00
             1229.00,1769.00 1229.00,1953.00 1229.00,1953.00
             1229.00,1953.00 1230.00,1968.00 1230.00,1968.00
             1230.00,1968.00 1230.00,2000.00 1230.00,2000.00
             1230.00,2000.00 1197.00,2000.00 1197.00,2000.00
             1197.00,2000.00 1197.00,1773.00 1197.00,1773.00
             1196.97,1755.25 1188.72,1739.82 1171.00,1734.09
             1164.10,1731.86 1156.15,1732.08 1149.00,1732.00
             1125.22,1731.72 1091.62,1723.61 1070.00,1713.77
             1047.21,1703.40 1031.25,1693.66 1012.00,1677.41
             973.47,1644.90 945.80,1596.68 937.08,1547.00
             937.08,1547.00 933.96,1522.00 933.96,1522.00
             933.96,1522.00 933.96,1511.00 933.96,1511.00
             933.96,1511.00 933.00,1499.00 933.00,1499.00
             933.00,1499.00 933.00,1448.00 933.00,1448.00
             933.00,1448.00 933.00,1335.00 933.00,1335.00 Z"/>
  <path id="orange"
        fill="#d34a24" stroke="#d34a24" stroke-width="1"
		d="M 986.00,1335.00
           C 986.00,1335.00 1019.00,1335.00 1019.00,1335.00
             1019.00,1335.00 1019.00,1464.00 1019.00,1464.00
             1019.00,1464.00 1018.00,1479.00 1018.00,1479.00
             1017.95,1511.62 1018.77,1539.11 1033.75,1569.00
             1039.60,1580.67 1046.87,1591.63 1056.01,1601.00
             1074.18,1619.62 1093.84,1633.70 1119.00,1641.28
             1147.46,1649.85 1162.37,1644.97 1187.00,1650.21
             1227.12,1658.74 1261.71,1689.14 1275.00,1728.00
             1279.22,1740.35 1281.98,1754.94 1282.00,1768.00
             1282.00,1768.00 1282.00,2000.00 1282.00,2000.00
             1282.00,2000.00 1250.00,2000.00 1250.00,2000.00
             1250.00,2000.00 1250.00,1772.00 1250.00,1772.00
             1249.94,1732.32 1225.08,1694.63 1186.00,1683.43
             1164.59,1677.29 1145.96,1681.52 1118.00,1674.53
             1087.88,1666.99 1057.70,1650.37 1036.04,1628.00
             1012.92,1604.11 995.36,1571.85 989.42,1539.00
             984.64,1512.51 986.00,1481.18 986.00,1454.00
             986.00,1454.00 986.00,1335.00 986.00,1335.00 Z"/>
  <path id="rouge"
        fill="#811f11" stroke="#811f11" stroke-width="1" 
		d="M 1038.00,1335.00
           C 1038.00,1335.00 1071.00,1335.00 1071.00,1335.00
             1071.00,1335.00 1071.00,1466.00 1071.00,1466.00
             1071.00,1500.09 1067.33,1529.96 1089.50,1559.00
             1094.95,1566.14 1099.05,1570.07 1106.00,1575.69
             1121.08,1587.89 1142.64,1594.97 1162.00,1595.00
             1175.63,1595.02 1184.43,1595.24 1198.00,1598.00
             1244.19,1607.42 1283.57,1634.13 1308.95,1674.00
             1321.46,1693.66 1330.15,1716.94 1333.57,1740.00
             1337.21,1764.54 1336.00,1792.97 1336.00,1818.00
             1336.00,1818.00 1336.00,2000.00 1336.00,2000.00
             1336.00,2000.00 1304.00,2000.00 1304.00,2000.00
             1304.00,2000.00 1304.00,1771.00 1304.00,1771.00
             1304.00,1771.00 1303.09,1761.00 1303.09,1761.00
             1301.40,1736.50 1296.24,1716.34 1283.55,1695.00
             1260.54,1656.33 1214.60,1627.22 1169.00,1627.00
             1169.00,1627.00 1158.00,1627.00 1158.00,1627.00
             1129.28,1626.96 1097.52,1614.01 1077.00,1593.99
             1058.71,1576.14 1046.51,1555.14 1041.45,1530.00
             1037.52,1510.48 1039.00,1474.29 1039.00,1453.00
             1039.00,1453.00 1039.00,1366.00 1039.00,1366.00
             1039.00,1366.00 1038.00,1353.00 1038.00,1353.00
             1038.00,1353.00 1038.00,1335.00 1038.00,1335.00 Z"/>
  <path id="turquoise"
        fill="#104b4d" stroke="#104b4d" stroke-width="1"
		d=" M 1092.00,1335.00
           C 1092.00,1335.00 1124.00,1335.00 1124.00,1335.00
             1124.00,1335.00 1124.00,1498.00 1124.00,1498.00
             1124.07,1511.95 1126.68,1522.02 1137.00,1531.96
             1141.44,1536.23 1145.08,1538.65 1151.00,1540.43
             1158.48,1542.68 1167.19,1541.96 1175.00,1542.00
             1175.00,1542.00 1186.00,1542.91 1186.00,1542.91
             1253.28,1547.62 1317.61,1584.58 1353.77,1642.00
             1368.53,1665.43 1379.24,1690.72 1384.39,1718.00
             1390.45,1750.14 1389.00,1788.99 1389.00,1822.00
             1389.00,1822.00 1389.00,2000.00 1389.00,2000.00
             1389.00,2000.00 1356.00,2000.00 1356.00,2000.00
             1356.00,2000.00 1356.00,1815.00 1356.00,1815.00
             1356.00,1815.00 1356.00,1753.00 1356.00,1753.00
             1355.64,1722.36 1343.29,1686.67 1326.95,1661.00
             1301.45,1620.95 1260.09,1590.95 1214.00,1579.47
             1195.75,1574.93 1177.68,1574.09 1159.00,1574.00
             1132.83,1573.88 1108.28,1556.85 1097.87,1533.00
             1093.74,1523.53 1092.02,1510.31 1092.00,1500.00
             1092.00,1500.00 1092.00,1335.00 1092.00,1335.00 Z" />
</svg>
