<?xml version="1.0" encoding="UTF-8" standalone="no"?>
<!DOCTYPE svg PUBLIC "-//W3C//DTD SVG 20010904//EN"
              "http://www.w3.org/TR/2001/REC-SVG-20010904/DTD/svg10.dtd">

<svg xmlns="http://www.w3.org/2000/svg"
     viewBox="0 0 1000 3535">
  <path id="jaune"
        fill="#ffaf00" stroke="#ffaf00" stroke-width="1"
        d="M 1.00,0.00
           C 1.00,0.00 59.00,0.00 59.00,0.00
             59.00,0.00 59.00,3537.00 59.00,3537.00
             59.00,3537.00 1.00,3537.00 1.00,3537.00
             1.00,3537.00 1.00,0.00 1.00,0.00 Z" />
    <path id="orange"
        fill="#d34a24" stroke="#d34a24" stroke-width="1"
        d="M 95.00,0.00
           C 95.00,0.00 153.00,0.00 153.00,0.00
             153.00,0.00 153.00,3537.00 153.00,3537.00
             153.00,3537.00 95.00,3537.00 95.00,3537.00
             95.00,3537.00 95.00,0.00 95.00,0.00 Z" />
      <path id="rouge"
        fill="#811f11" stroke="#811f11" stroke-width="1"
        d="M 189.00,0.00
           C 189.00,0.00 247.00,0.00 247.00,0.00
             247.00,0.00 247.00,3537.00 247.00,3537.00
             247.00,3537.00 189.00,3537.00 189.00,3537.00
             189.00,3537.00 189.00,0.00 189.00,0.00 Z" />
      <path id="turquoise"
        fill="#104b4d" stroke="#104b4d" stroke-width="1"
        d="M 283.00,0.00
           C 283.00,0.00 341.00,0.00 341.00,0.00
             341.00,0.00 341.00,3537.00 341.00,3537.00
             341.00,3537.00 283.00,3537.00 283.00,3537.00
             283.00,3537.00 283.00,0.00 283.00,0.00 Z" />
</svg>
