<?xml version="1.0" encoding="UTF-8" standalone="no"?>
<!DOCTYPE svg PUBLIC "-//W3C//DTD SVG 20010904//EN"
              "http://www.w3.org/TR/2001/REC-SVG-20010904/DTD/svg10.dtd">

<svg xmlns="http://www.w3.org/2000/svg"
     viewBox="0 0 88 57">
  <path id="vg"
        fill="#d34a24" stroke="#d34a24" stroke-width="1"
        d="M 30.00,0.00
           C 30.00,0.00 35.00,0.00 35.00,0.00
             35.00,0.00 35.00,57.00 35.00,57.00
             35.00,57.00 30.00,57.00 30.00,57.00
             30.00,57.00 30.00,0.00 30.00,0.00 Z"/>
  <path id="hgh"
        fill="#ffaf00" stroke="#ffaf00" stroke-width="1"
        d="M 0.00,17.00
           C 0.00,17.00 29.00,17.00 29.00,17.00
             29.00,17.00 29.00,22.00 29.00,22.00
             29.00,22.00 0.00,22.00 0.00,22.00
             0.00,22.00 0.00,17.00 0.00,17.00 Z"/>
  <path id="hgb"
        fill="#ffaf00" stroke="#ffaf00" stroke-width="1"
        d="M 0.00,33.00
           C 0.00,33.00 29.00,33.00 29.00,33.00
             29.00,33.00 29.00,38.00 29.00,38.00
             29.00,38.00 0.00,38.00 0.00,38.00
             0.00,38.00 0.00,33.00 0.00,33.00 Z"/>
  <path id="vd"
        fill="#d34a24" stroke="#d34a24" stroke-width="1"
        d="M 50.00,0.00
           C 50.00,0.00 55.00,0.00 55.00,0.00
             55.00,0.00 55.00,57.00 55.00,57.00
             55.00,57.00 50.00,57.00 50.00,57.00
             50.00,57.00 50.00,0.00 50.00,0.00 Z"/>
  <path id="hdh"
        fill="#ffaf00" stroke="#ffaf00" stroke-width="1"
        d="M 56.00,17.00
           C 56.00,17.00 88.00,17.00 88.00,17.00
             88.00,17.00 88.00,22.00 88.00,22.00
             88.00,22.00 56.00,22.00 56.00,22.00
             56.00,22.00 56.00,17.00 56.00,17.00 Z"/>
  <path id="hdh"
        fill="#ffaf00" stroke="#ffaf00" stroke-width="1"
        d="M 56.00,33.00
           C 56.00,33.00 88.00,33.00 88.00,33.00
             88.00,33.00 88.00,38.00 88.00,38.00
             88.00,38.00 56.00,38.00 56.00,38.00
             56.00,38.00 56.00,33.00 56.00,33.00 Z"/>
</svg>
